<svg width="25" height="22" viewBox="0 0 25 22" fill="none" xmlns="http://www.w3.org/2000/svg">
<g clip-path="url(#clip0_1304_295)">
<path fill-rule="evenodd" clip-rule="evenodd" d="M1 16.0333V21H24.5V1H1V16.0333ZM1 16.0333L2.66308 14.4353L5.12821 16.7927L10.5421 11.602L12.2051 13.2L5.12821 20L1 16.0333ZM9.84615 3H2.76923V9.8H9.84615V3ZM5.12821 7.53333V5.26667H7.48718V7.53333H5.12821ZM24 5.26667H12.2051V7.53333H24V5.26667ZM24 14.3333H12.2051V16.6H24V14.3333Z" fill="white"/>
<path d="M1 21H0.5V21.5H1V21ZM24.5 21V21.5H25V21H24.5ZM24.5 1H25V0.5H24.5V1ZM1 1V0.5H0.5V1H1ZM2.66308 14.4353L3.00864 14.074L2.66225 13.7427L2.31665 14.0748L2.66308 14.4353ZM5.12821 16.7927L4.78264 17.154L5.12866 17.4849L5.47424 17.1536L5.12821 16.7927ZM10.5421 11.602L10.8885 11.2415L10.5424 10.909L10.196 11.2411L10.5421 11.602ZM12.2051 13.2L12.5516 13.5605L12.9268 13.2L12.5516 12.8395L12.2051 13.2ZM5.12821 20L4.78178 20.3605L5.12821 20.6934L5.47463 20.3605L5.12821 20ZM2.76923 3V2.5H2.26923V3H2.76923ZM9.84615 3H10.3462V2.5H9.84615V3ZM2.76923 9.8H2.26923V10.3H2.76923V9.8ZM9.84615 9.8V10.3H10.3462V9.8H9.84615ZM5.12821 5.26667V4.76667H4.62821V5.26667H5.12821ZM5.12821 7.53333H4.62821V8.03333H5.12821V7.53333ZM7.48718 5.26667H7.98718V4.76667H7.48718V5.26667ZM7.48718 7.53333V8.03333H7.98718V7.53333H7.48718ZM12.2051 5.26667V4.76667H11.7051V5.26667H12.2051ZM24 5.26667H24.5V4.76667H24V5.26667ZM12.2051 7.53333H11.7051V8.03333H12.2051V7.53333ZM24 7.53333V8.03333H24.5V7.53333H24ZM12.2051 14.3333V13.8333H11.7051V14.3333H12.2051ZM24 14.3333H24.5V13.8333H24V14.3333ZM12.2051 16.6H11.7051V17.1H12.2051V16.6ZM24 16.6V17.1H24.5V16.6H24ZM1.5 21V16.0333H0.5V21H1.5ZM24.5 20.5H1V21.5H24.5V20.5ZM24 1V21H25V1H24ZM1 1.5H24.5V0.5H1V1.5ZM1.5 16.0333V1H0.5V16.0333H1.5ZM1.34643 16.3939L3.00951 14.7959L2.31665 14.0748L0.653571 15.6728L1.34643 16.3939ZM2.31751 14.7967L4.78264 17.154L5.47377 16.4313L3.00864 14.074L2.31751 14.7967ZM5.47424 17.1536L10.8881 11.9629L10.196 11.2411L4.78217 16.4318L5.47424 17.1536ZM10.1956 11.9625L11.8587 13.5605L12.5516 12.8395L10.8885 11.2415L10.1956 11.9625ZM11.8587 12.8395L4.78178 19.6395L5.47463 20.3605L12.5516 13.5605L11.8587 12.8395ZM5.47463 19.6395L1.34643 15.6728L0.653571 16.3939L4.78178 20.3605L5.47463 19.6395ZM2.76923 3.5H9.84615V2.5H2.76923V3.5ZM3.26923 9.8V3H2.26923V9.8H3.26923ZM9.84615 9.3H2.76923V10.3H9.84615V9.3ZM9.34615 3V9.8H10.3462V3H9.34615ZM4.62821 5.26667V7.53333H5.62821V5.26667H4.62821ZM7.48718 4.76667H5.12821V5.76667H7.48718V4.76667ZM7.98718 7.53333V5.26667H6.98718V7.53333H7.98718ZM5.12821 8.03333H7.48718V7.03333H5.12821V8.03333ZM12.2051 5.76667H24V4.76667H12.2051V5.76667ZM12.7051 7.53333V5.26667H11.7051V7.53333H12.7051ZM24 7.03333H12.2051V8.03333H24V7.03333ZM23.5 5.26667V7.53333H24.5V5.26667H23.5ZM12.2051 14.8333H24V13.8333H12.2051V14.8333ZM12.7051 16.6V14.3333H11.7051V16.6H12.7051ZM24 16.1H12.2051V17.1H24V16.1ZM23.5 14.3333V16.6H24.5V14.3333H23.5Z" fill="white"/>
</g>
<defs>
<clipPath id="clip0_1304_295">
<rect width="25" height="22" fill="white"/>
</clipPath>
</defs>
</svg>
